# 3ds Max Wavefront OBJ Exporter v0.99 - (c)2007 guruware
# File Created: 05.12.2022 11:28:19

mtllib Cone_SM.mtl

#
# object Traffic_Cone_SM
#

v  64.3062 1.0993 -0.0000
v  57.3598 1.0993 -12.0316
v  56.0945 9.0954 -9.8399
v  61.7756 9.0954 -0.0000
v  50.4134 1.0993 -13.8929
v  50.4134 9.0954 -11.3622
v  38.3818 1.0993 -6.9464
v  40.5735 9.0954 -5.6811
v  36.5205 1.0993 -0.0000
v  39.0512 9.0954 -0.0000
v  43.4670 1.0993 12.0316
v  44.7323 9.0954 9.8399
v  50.4134 1.0993 13.8929
v  50.4134 9.0954 11.3622
v  62.4450 1.0993 6.9464
v  60.2533 9.0954 5.6811
v  54.8291 17.0915 -7.6483
v  59.2448 17.0915 -0.0000
v  50.4134 17.0915 -8.8315
v  42.7651 17.0915 -4.4157
v  41.5819 17.0915 -0.0000
v  45.9977 17.0915 7.6483
v  50.4134 17.0915 8.8315
v  58.0617 17.0915 4.4157
v  53.5638 25.0876 -5.4566
v  56.7142 25.0876 -0.0000
v  50.4134 25.0876 -6.3008
v  44.9568 25.0876 -3.1504
v  44.1126 25.0876 -0.0000
v  47.2630 25.0876 5.4566
v  50.4134 25.0876 6.3008
v  55.8700 25.0876 3.1504
v  52.2984 33.0838 -3.2650
v  54.1835 33.0838 -0.0000
v  50.4134 33.0838 -3.7701
v  47.1484 33.0838 -1.8850
v  46.6433 33.0838 -0.0000
v  48.5284 33.0838 3.2650
v  50.4134 33.0838 3.7701
v  53.6784 33.0838 1.8850
v  51.0331 41.0799 -1.0733
v  51.6528 41.0799 -0.0000
v  50.4134 41.0799 -1.2394
v  49.3401 41.0799 -0.6197
v  49.1740 41.0799 -0.0000
v  49.7937 41.0799 1.0733
v  50.4134 41.0799 1.2394
v  51.4867 41.0799 0.6197
v  30.4587 0.8184 19.9547
v  70.3681 0.8184 19.9547
v  70.3681 0.8184 -19.9547
v  30.4587 0.8184 -19.9547
# 52 vertices

vn 0.9420 0.3151 -0.1153
vn 0.5709 0.3151 -0.7581
vn 0.5793 0.3147 -0.7519
vn 0.9408 0.3147 -0.1257
vn -0.1153 0.3151 -0.9420
vn -0.1257 0.3147 -0.9408
vn -0.7581 0.3151 -0.5709
vn -0.7519 0.3147 -0.5793
vn -0.9420 0.3151 0.1153
vn -0.9408 0.3147 0.1257
vn -0.5709 0.3151 0.7581
vn -0.5793 0.3147 0.7519
vn 0.1153 0.3151 0.9420
vn 0.1257 0.3147 0.9408
vn 0.7581 0.3151 0.5709
vn 0.7519 0.3147 0.5793
vn 0.5864 0.3144 -0.7465
vn 0.9397 0.3144 -0.1346
vn -0.1346 0.3144 -0.9397
vn -0.7465 0.3144 -0.5864
vn -0.9397 0.3144 0.1346
vn -0.5864 0.3144 0.7465
vn 0.1346 0.3144 0.9397
vn 0.7465 0.3144 0.5864
vn 0.0000 1.0000 -0.0000
# 25 vertex normals

vt 0.8421 0.8348 0.0000
vt 0.8798 0.7998 0.0000
vt 0.8962 0.8244 0.0000
vt 0.8653 0.8530 0.0000
vt 0.9031 0.7869 0.0000
vt 0.9153 0.8139 0.0000
vt 0.9528 0.7735 0.0000
vt 0.9559 0.8029 0.0000
vt 0.9795 0.7729 0.0000
vt 0.9777 0.8024 0.0000
vt 0.8149 0.9830 0.0000
vt 0.8076 0.9321 0.0000
vt 0.8371 0.9326 0.0000
vt 0.8431 0.9742 0.0000
vt 0.8102 0.9056 0.0000
vt 0.8393 0.9109 0.0000
vt 0.8274 0.8570 0.0000
vt 0.8534 0.8712 0.0000
vt 0.9126 0.8490 0.0000
vt 0.8886 0.8712 0.0000
vt 0.9274 0.8408 0.0000
vt 0.9590 0.8323 0.0000
vt 0.9759 0.8319 0.0000
vt 0.8667 0.9331 0.0000
vt 0.8713 0.9654 0.0000
vt 0.8684 0.9162 0.0000
vt 0.8793 0.8854 0.0000
vt 0.9290 0.8736 0.0000
vt 0.9119 0.8895 0.0000
vt 0.9396 0.8677 0.0000
vt 0.9621 0.8617 0.0000
vt 0.9742 0.8614 0.0000
vt 0.8962 0.9336 0.0000
vt 0.8995 0.9567 0.0000
vt 0.8974 0.9215 0.0000
vt 0.9052 0.8995 0.0000
vt 0.9454 0.8982 0.0000
vt 0.9351 0.9077 0.0000
vt 0.9517 0.8947 0.0000
vt 0.9652 0.8910 0.0000
vt 0.9724 0.8909 0.0000
vt 0.9258 0.9341 0.0000
vt 0.9278 0.9479 0.0000
vt 0.9265 0.9269 0.0000
vt 0.9312 0.9137 0.0000
vt 0.9618 0.9228 0.0000
vt 0.9584 0.9259 0.0000
vt 0.9638 0.9216 0.0000
vt 0.9683 0.9204 0.0000
vt 0.9706 0.9204 0.0000
vt 0.9553 0.9346 0.0000
vt 0.9560 0.9391 0.0000
vt 0.9556 0.9322 0.0000
vt 0.9571 0.9279 0.0000
vt 0.8059 0.5739 0.0000
vt 0.9813 0.5739 0.0000
vt 0.9813 0.7494 0.0000
vt 0.8059 0.7494 0.0000
# 58 texture coords

o Traffic_Cone_SM
g Traffic_Cone_SM
usemtl wire_225198087
s 8
f 1/1/1 2/2/2 3/3/3 4/4/4 
f 2/2/2 5/5/5 6/6/6 3/3/3 
f 5/5/5 7/7/7 8/8/8 6/6/6 
f 7/7/7 9/9/9 10/10/10 8/8/8 
f 9/11/9 11/12/11 12/13/12 10/14/10 
f 11/12/11 13/15/13 14/16/14 12/13/12 
f 13/15/13 15/17/15 16/18/16 14/16/14 
f 15/17/15 1/1/1 4/4/4 16/18/16 
f 4/4/4 3/3/3 17/19/3 18/20/4 
f 3/3/3 6/6/6 19/21/6 17/19/3 
f 6/6/6 8/8/8 20/22/8 19/21/6 
f 8/8/8 10/10/10 21/23/10 20/22/8 
f 10/14/10 12/13/12 22/24/12 21/25/10 
f 12/13/12 14/16/14 23/26/14 22/24/12 
f 14/16/14 16/18/16 24/27/16 23/26/14 
f 16/18/16 4/4/4 18/20/4 24/27/16 
f 18/20/4 17/19/3 25/28/3 26/29/4 
f 17/19/3 19/21/6 27/30/6 25/28/3 
f 19/21/6 20/22/8 28/31/8 27/30/6 
f 20/22/8 21/23/10 29/32/10 28/31/8 
f 21/25/10 22/24/12 30/33/12 29/34/10 
f 22/24/12 23/26/14 31/35/14 30/33/12 
f 23/26/14 24/27/16 32/36/16 31/35/14 
f 24/27/16 18/20/4 26/29/4 32/36/16 
f 26/29/4 25/28/3 33/37/3 34/38/4 
f 25/28/3 27/30/6 35/39/6 33/37/3 
f 27/30/6 28/31/8 36/40/8 35/39/6 
f 28/31/8 29/32/10 37/41/10 36/40/8 
f 29/34/10 30/33/12 38/42/12 37/43/10 
f 30/33/12 31/35/14 39/44/14 38/42/12 
f 31/35/14 32/36/16 40/45/16 39/44/14 
f 32/36/16 26/29/4 34/38/4 40/45/16 
f 34/38/4 33/37/3 41/46/17 42/47/18 
f 33/37/3 35/39/6 43/48/19 41/46/17 
f 35/39/6 36/40/8 44/49/20 43/48/19 
f 36/40/8 37/41/10 45/50/21 44/49/20 
f 37/43/10 38/42/12 46/51/22 45/52/21 
f 38/42/12 39/44/14 47/53/23 46/51/22 
f 39/44/14 40/45/16 48/54/24 47/53/23 
f 40/45/16 34/38/4 42/47/18 48/54/24 
s 1
f 49/55/25 50/56/25 51/57/25 52/58/25 
# 41 polygons

