# 3ds Max Wavefront OBJ Exporter v0.99 - (c)2007 guruware
# File Created: 05.12.2022 11:27:44

mtllib Noodles_SM.mtl

#
# object Noodles_SM
#

v  50.4800 0.0000 30.4264
v  65.2040 0.0000 30.0886
v  65.5419 0.0000 44.8125
v  50.8179 0.0000 45.1504
v  48.8068 17.9454 28.8283
v  49.2198 17.9454 46.8236
v  67.2151 17.9454 46.4106
v  66.8021 17.9454 28.4154
v  48.2430 20.0000 47.8463
v  47.7842 20.0000 27.8515
v  68.2377 20.0000 47.3874
v  67.7789 20.0000 27.3927
v  49.2198 20.0000 46.8236
v  48.8068 20.0000 28.8283
v  67.2151 20.0000 46.4106
v  66.8021 20.0000 28.4154
v  48.0901 20.0000 41.1813
v  47.9371 20.0000 34.5164
v  44.8774 22.4177 34.5866
v  45.0303 22.4177 41.2516
v  54.4493 20.0118 27.7064
v  61.1142 20.0118 27.5535
v  61.0067 18.2620 22.8709
v  54.3418 18.2620 23.0238
v  67.8582 19.9764 34.0593
v  68.0111 19.9764 40.7242
v  73.2153 22.5661 40.6048
v  73.0624 22.5661 33.9398
v  61.5728 20.0000 47.5404
v  54.9079 20.0000 47.6933
v  54.9890 23.5355 51.2279
v  61.6539 23.5355 51.0750
v  48.3241 23.5355 51.3809
v  61.7351 27.0711 54.6096
v  68.3188 23.5355 50.9220
v  44.7245 22.4177 27.9217
v  40.0711 23.0441 41.3654
v  45.1833 22.4177 47.9165
v  67.7791 20.0118 27.4005
v  67.6716 18.2620 22.7179
v  54.2343 16.5122 18.3413
v  47.6769 18.2620 23.1768
v  68.1641 19.9764 47.3891
v  73.3683 22.5661 47.2697
v  76.9130 19.3779 33.8515
v  72.9094 22.5661 27.2749
v  77.0659 19.3779 40.5164
v  67.7052 19.9764 27.3944
v  60.8993 16.5122 18.1883
v  47.7843 20.0118 27.8594
v  39.9181 23.0441 34.7005
v  55.0701 27.0711 54.7625
v  61.1184 33.9164 46.3941
v  61.7303 34.1054 45.6260
v  60.9429 34.3423 45.0570
v  60.3310 34.1533 45.8250
v  58.8134 5.4833 37.0927
v  58.6124 5.5438 36.9475
v  58.7822 5.5962 36.7343
v  58.9832 5.5358 36.8796
v  65.3694 33.4091 45.4679
v  65.9896 33.5205 44.6915
v  65.2471 33.9228 44.1560
v  64.6268 33.8114 44.9324
v  57.7367 6.3377 35.0203
v  57.5472 6.4404 34.8836
v  57.7193 6.4713 34.6681
v  57.9088 6.3687 34.8048
# 68 vertices

vn -0.5523 -0.6455 -0.5275
vn 0.5275 -0.6455 -0.5523
vn 0.5523 -0.6455 0.5275
vn -0.5275 -0.6455 0.5523
vn 0.5904 0.5774 0.5640
vn 0.5640 0.5774 -0.5904
vn -0.5904 0.5774 -0.5640
vn -0.5640 0.5774 0.5904
vn -0.4973 -0.6940 0.5206
vn -0.7109 -0.1832 -0.6790
vn 0.4266 0.8074 0.4075
vn 0.5946 0.5089 -0.6225
vn 0.0000 1.0000 -0.0000
vn 0.2945 0.9045 -0.3083
vn 0.3083 0.9045 0.2945
vn 0.0000 -1.0000 -0.0000
vn -0.3083 0.9045 -0.2945
vn 0.0229 0.0000 0.9997
vn -0.2945 0.9045 0.3083
vn 0.6197 0.7847 -0.0142
vn 0.3866 0.9222 -0.0089
vn -0.0080 0.9368 -0.3499
vn -0.4453 0.8953 0.0102
vn 0.1146 0.9934 -0.0026
vn -0.0162 0.7071 -0.7069
vn 0.4908 0.8712 -0.0113
vn 0.1253 0.9921 -0.0029
vn -0.1503 0.9886 0.0035
vn 0.6375 0.7703 -0.0146
vn 0.1445 0.2969 0.9439
vn 0.8549 0.5162 0.0523
vn -0.0595 0.7913 -0.6085
vn -0.7699 0.5720 0.2831
vn 0.0572 -0.8007 0.5963
vn -0.8468 -0.5289 -0.0572
vn -0.1441 -0.3117 -0.9392
vn 0.7599 -0.5839 -0.2858
vn 0.2154 0.2206 0.9513
vn 0.9354 0.3499 0.0499
vn 0.0732 0.8170 -0.5719
vn -0.6469 0.6877 0.3295
vn -0.0774 -0.8254 0.5593
vn -0.9299 -0.3635 -0.0555
vn -0.2176 -0.2355 -0.9472
vn 0.6349 -0.6974 -0.3324
# 45 vertex normals

vt 0.2626 0.1443 0.0000
vt 0.2614 0.1182 0.0000
vt 0.2875 0.1170 0.0000
vt 0.2887 0.1431 0.0000
vt 0.0716 0.1105 0.0000
vt 0.1587 0.1105 0.0000
vt 0.1587 0.1976 0.0000
vt 0.0716 0.1976 0.0000
vt 0.4280 0.2121 0.0000
vt 0.4868 0.1895 0.0000
vt 0.5283 0.2660 0.0000
vt 0.4485 0.2967 0.0000
vt 0.2455 0.1841 0.0000
vt 0.3032 0.2093 0.0000
vt 0.2789 0.2929 0.0000
vt 0.2005 0.2586 0.0000
vt 0.3654 0.2189 0.0000
vt 0.3634 0.3059 0.0000
vt 0.1679 0.1011 0.0000
vt 0.1626 0.1063 0.0000
vt 0.0674 0.1061 0.0000
vt 0.0621 0.1008 0.0000
vt 0.1677 0.2069 0.0000
vt 0.1624 0.2016 0.0000
vt 0.0619 0.2066 0.0000
vt 0.0672 0.2013 0.0000
vt 0.2247 0.0222 0.0000
vt 0.1443 0.0227 0.0000
vt 0.1442 0.0136 0.0000
vt 0.2246 0.0130 0.0000
vt 0.0639 0.0233 0.0000
vt 0.0638 0.0141 0.0000
vt 0.3854 0.0211 0.0000
vt 0.3051 0.0216 0.0000
vt 0.3050 0.0124 0.0000
vt 0.3854 0.0119 0.0000
vt 0.0559 0.1358 0.0000
vt 0.0555 0.1706 0.0000
vt 0.0352 0.1704 0.0000
vt 0.0356 0.1356 0.0000
vt 0.0988 0.2108 0.0000
vt 0.1369 0.2114 0.0000
vt 0.1365 0.2400 0.0000
vt 0.0984 0.2394 0.0000
vt 0.1336 0.0961 0.0000
vt 0.0966 0.0964 0.0000
vt 0.0963 0.0641 0.0000
vt 0.1333 0.0637 0.0000
vt 0.1770 0.1733 0.0000
vt 0.1766 0.1355 0.0000
vt 0.2049 0.1352 0.0000
vt 0.2053 0.1730 0.0000
vt 0.1761 0.0978 0.0000
vt 0.2044 0.0975 0.0000
vt 0.2336 0.1727 0.0000
vt 0.2057 0.2107 0.0000
vt 0.0552 0.2053 0.0000
vt 0.0349 0.2051 0.0000
vt 0.0095 0.1354 0.0000
vt 0.0359 0.1009 0.0000
vt 0.1751 0.2119 0.0000
vt 0.1746 0.2405 0.0000
vt 0.0979 0.2680 0.0000
vt 0.0602 0.2388 0.0000
vt 0.0595 0.0968 0.0000
vt 0.0592 0.0644 0.0000
vt 0.1331 0.0359 0.0000
vt 0.1704 0.0634 0.0000
vt 0.0960 0.0363 0.0000
vt 0.1707 0.0957 0.0000
vt 0.1361 0.2686 0.0000
vt 0.0607 0.2102 0.0000
vt 0.0092 0.1701 0.0000
vt 0.0562 0.1011 0.0000
vt 0.2332 0.1349 0.0000
vt 0.1774 0.2110 0.0000
vt 0.2601 0.1048 0.0000
vt 0.2353 0.1076 0.0000
vt 0.2337 0.0830 0.0000
vt 0.2584 0.0802 0.0000
vt 0.2577 0.1147 0.0000
vt 0.2577 0.1306 0.0000
vt 0.2402 0.1297 0.0000
vt 0.2403 0.1138 0.0000
vt 0.3515 0.0489 0.0000
vt 0.3518 0.0546 0.0000
vt 0.1841 0.0651 0.0000
vt 0.1840 0.0633 0.0000
vt 0.3519 0.0607 0.0000
vt 0.1840 0.0675 0.0000
vt 0.3519 0.0667 0.0000
vt 0.1838 0.0699 0.0000
vt 0.3518 0.0724 0.0000
vt 0.1838 0.0718 0.0000
vt 0.2660 0.0824 0.0000
vt 0.2944 0.0810 0.0000
vt 0.2957 0.1095 0.0000
vt 0.2673 0.1108 0.0000
vt 0.2578 0.1330 0.0000
vt 0.2583 0.1479 0.0000
vt 0.2406 0.1476 0.0000
vt 0.2401 0.1327 0.0000
vt 0.1847 0.0460 0.0000
vt 0.1845 0.0397 0.0000
vt 0.3506 0.0383 0.0000
vt 0.3507 0.0402 0.0000
vt 0.1845 0.0338 0.0000
vt 0.3505 0.0366 0.0000
vt 0.1856 0.0581 0.0000
vt 0.1851 0.0523 0.0000
vt 0.3509 0.0422 0.0000
vt 0.3510 0.0438 0.0000
# 112 texture coords

o Noodles_SM
g Noodles_SM
usemtl wire_006135006
s 2
f 1/1/1 2/2/2 3/3/3 4/4/4 
s 4
f 5/5/5 6/6/6 7/7/7 8/8/8 
s 8
f 1/9/1 4/10/4 9/11/9 10/12/10 
s 16
f 4/13/4 3/14/3 11/15/11 9/16/9 
s 32
f 3/14/3 2/17/2 12/18/12 11/15/11 
s 64
f 2/17/2 1/9/1 10/12/10 12/18/12 
s off
f 9/19/13 13/20/14 14/21/15 10/22/13 10/22/10 
f 11/23/16 15/24/17 13/20/14 9/19/13 9/19/9 
f 12/25/18 16/26/19 15/24/17 11/23/16 11/23/11 
f 10/22/13 14/21/15 16/26/19 12/25/18 12/25/12 
f 14/27/15 13/28/14 6/29/6 5/30/5 
f 13/28/14 15/31/17 7/32/7 6/29/6 
f 15/33/17 16/34/19 8/35/8 7/36/7 
f 16/34/19 14/27/15 5/30/5 8/35/8 
f 17/37/20 18/38/20 19/39/21 20/40/21 
f 21/41/22 22/42/22 23/43/22 24/44/22 
f 25/45/23 26/46/23 27/47/24 28/48/24 
f 29/49/25 30/50/25 31/51/25 32/52/25 
f 30/50/25 9/53/25 33/54/25 31/51/25 
f 34/55/25 35/56/25 32/52/25 
f 18/38/20 10/57/20 36/58/26 19/39/21 
f 37/59/27 38/60/26 20/40/21 
f 22/42/22 39/61/22 40/62/22 23/43/22 
f 41/63/22 42/64/22 24/44/22 
f 26/46/23 43/65/23 44/66/28 27/47/24 
f 45/67/29 46/68/28 28/48/24 
f 27/47/24 47/69/29 45/67/29 28/48/24 
f 44/66/28 47/69/29 27/47/24 
f 46/68/28 48/70/23 25/45/23 28/48/24 
f 23/43/22 49/71/22 41/63/22 24/44/22 
f 40/62/22 49/71/22 23/43/22 
f 42/64/22 50/72/22 21/41/22 24/44/22 
f 19/39/21 51/73/27 37/59/27 20/40/21 
f 36/58/26 51/73/27 19/39/21 
f 38/60/26 9/74/20 17/37/20 20/40/21 
f 31/51/25 52/75/25 34/55/25 32/52/25 
f 33/54/25 52/75/25 31/51/25 
f 35/56/25 11/76/25 29/49/25 32/52/25 
s 2
f 53/77/30 54/78/31 55/79/32 56/80/33 
s 4
f 57/81/34 58/82/35 59/83/36 60/84/37 
s 8
f 53/85/30 56/86/33 58/87/35 57/88/34 
s 16
f 56/86/33 55/89/32 59/90/36 58/87/35 
s 32
f 55/89/32 54/91/31 60/92/37 59/90/36 
s 64
f 54/91/31 53/93/30 57/94/34 60/92/37 
s 2
f 61/95/38 62/96/39 63/97/40 64/98/41 
s 4
f 65/99/42 66/100/43 67/101/44 68/102/45 
s 8
f 61/103/38 64/104/41 66/105/43 65/106/42 
s 16
f 64/104/41 63/107/40 67/108/44 66/105/43 
s 32
f 63/109/40 62/110/39 68/111/45 67/112/44 
s 64
f 62/110/39 61/103/38 65/106/42 68/111/45 
# 42 polygons - 8 triangles

